<?xml version="1.0" encoding="UTF-8" standalone="no"?>
<!-- Generated by the Fritzing Team. http://www.fritzing.org. CreativeCommons:BY -->
<!-- This file was created through a template.-->
<svg
   version="1.2"
   baseProfile="tiny"
   id="svg2"
   x="0px"
   y="0px"
   width="32px"
   height="32px"
   viewBox="0 0 32 32">
<g
   id="icon"
   transform="matrix(0.9 0 0 0.9 0 0)">
	<rect
   x="3.5"
   y="26.32"
   fill="#8C8C8C"
   width="3"
   height="6.68"
   id="rect4" />
	<rect
   x="13.5"
   y="26.32"
   fill="#8C8C8C"
   width="3"
   height="6.68"
   id="rect6" />
	<rect
   x="23.5"
   y="26.32"
   fill="#8C8C8C"
   width="3"
   height="6.68"
   id="rect8" />
	<rect
   x="33.5"
   y="26.32"
   fill="#8C8C8C"
   width="3"
   height="6.68"
   id="rect10" />
	<rect
   x="43.5"
   y="26.32"
   fill="#8C8C8C"
   width="3"
   height="6.68"
   id="rect12" />
	<rect
   x="53.5"
   y="26.32"
   fill="#8C8C8C"
   width="3"
   height="6.68"
   id="rect14" />
	<rect
   x="63.5"
   y="26.32"
   fill="#8C8C8C"
   width="3"
   height="6.68"
   id="rect16" />
	<rect
   x="73.5"
   y="26.32"
   fill="#8C8C8C"
   width="3"
   height="6.68"
   id="rect18" />
	<rect
   x="83.5"
   y="26.32"
   fill="#8C8C8C"
   width="3"
   height="6.68"
   id="rect20" />
	<rect
   x="93.5"
   y="26.32"
   fill="#8C8C8C"
   width="3"
   height="6.68"
   id="rect22" />
	<rect
   x="103.5"
   y="26.32"
   fill="#8C8C8C"
   width="3"
   height="6.68"
   id="rect24" />
	<rect
   x="113.5"
   y="26.32"
   fill="#8C8C8C"
   width="3"
   height="6.68"
   id="rect26" />
	<rect
   x="123.5"
   y="26.32"
   fill="#8C8C8C"
   width="3"
   height="6.68"
   id="rect28" />
	<rect
   x="133.5"
   y="26.32"
   fill="#8C8C8C"
   width="3"
   height="6.68"
   id="rect30" />
	<rect
   x="133.5"
   y="0"
   fill="#8C8C8C"
   width="3"
   height="6.68"
   id="rect32" />
	<rect
   x="123.5"
   y="0"
   fill="#8C8C8C"
   width="3"
   height="6.68"
   id="rect34" />
	<rect
   x="113.5"
   y="0"
   fill="#8C8C8C"
   width="3"
   height="6.68"
   id="rect36" />
	<rect
   x="103.5"
   y="0"
   fill="#8C8C8C"
   width="3"
   height="6.68"
   id="rect38" />
	<rect
   x="93.5"
   y="0"
   fill="#8C8C8C"
   width="3"
   height="6.68"
   id="rect40" />
	<rect
   x="83.5"
   y="0"
   fill="#8C8C8C"
   width="3"
   height="6.68"
   id="rect42" />
	<rect
   x="73.5"
   y="0"
   fill="#8C8C8C"
   width="3"
   height="6.68"
   id="rect44" />
	<rect
   x="63.5"
   y="0"
   fill="#8C8C8C"
   width="3"
   height="6.68"
   id="rect46" />
	<rect
   x="53.5"
   y="0"
   fill="#8C8C8C"
   width="3"
   height="6.68"
   id="rect48" />
	<rect
   x="43.5"
   y="0"
   fill="#8C8C8C"
   width="3"
   height="6.68"
   id="rect50" />
	<rect
   x="33.5"
   y="0"
   fill="#8C8C8C"
   width="3"
   height="6.68"
   id="rect52" />
	<rect
   x="23.5"
   y="0"
   fill="#8C8C8C"
   width="3"
   height="6.68"
   id="rect54" />
	<rect
   x="13.5"
   y="0"
   fill="#8C8C8C"
   width="3"
   height="6.68"
   id="rect56" />
	<rect
   x="3.5"
   y="0"
   fill="#8C8C8C"
   width="3"
   height="6.68"
   id="rect58" />
	<polygon
   fill="#3D3D3D"
   points="0,3 140,3 139.25,11.5 0,11.5  "
   id="polygon60" />
	<polygon
   points="0,21.5 139.25,21.5 140,30 0,30  "
   id="polygon62" />
	<polygon
   fill="#8C8C8C"
   points="8.5,4.34 8.5,3.26 6.5,2.34 3.5,2.34 3.5,4.34  "
   id="polygon64" />
	<polygon
   fill="#8C8C8C"
   points="136.5,4.34 136.5,2.34 133.5,2.34 131.5,3.26 131.5,4.34  "
   id="polygon66" />
	<polygon
   fill="#8C8C8C"
   points="3.5,28.66 3.5,30.66 6.5,30.66 8.5,29.74 8.5,28.66  "
   id="polygon68" />
	<polygon
   fill="#8C8C8C"
   points="131.5,28.66 131.5,29.74 133.5,30.66 136.5,30.66 136.5,28.66  "
   id="polygon70" />
	<polygon
   fill="#8C8C8C"
   points="18.5,4.34 18.5,3.26 16.5,2.34 13.5,2.34 11.5,3.26 11.5,4.34"
   id="polygon72" />
	<polygon
   fill="#8C8C8C"
   points="11.5,28.66 11.5,29.74 13.5,30.66 16.5,30.66 18.5,29.74 18.5,28.66"
   id="polygon74" />
	<polygon
   fill="#8C8C8C"
   points="28.5,4.34 28.5,3.26 26.5,2.34 23.5,2.34 21.5,3.26 21.5,4.34"
   id="polygon76" />
	<polygon
   fill="#8C8C8C"
   points="21.5,28.66 21.5,29.74 23.5,30.66 26.5,30.66 28.5,29.74 28.5,28.66"
   id="polygon78" />
	<polygon
   fill="#8C8C8C"
   points="38.5,4.34 38.5,3.26 36.5,2.34 33.5,2.34 31.5,3.26 31.5,4.34"
   id="polygon80" />
	<polygon
   fill="#8C8C8C"
   points="31.5,28.66 31.5,29.74 33.5,30.66 36.5,30.66 38.5,29.74 38.5,28.66"
   id="polygon82" />
	<polygon
   fill="#8C8C8C"
   points="48.5,4.34 48.5,3.26 46.5,2.34 43.5,2.34 41.5,3.26 41.5,4.34"
   id="polygon84" />
	<polygon
   fill="#8C8C8C"
   points="41.5,28.66 41.5,29.74 43.5,30.66 46.5,30.66 48.5,29.74 48.5,28.66"
   id="polygon86" />
	<polygon
   fill="#8C8C8C"
   points="58.5,4.34 58.5,3.26 56.5,2.34 53.5,2.34 51.5,3.26 51.5,4.34"
   id="polygon88" />
	<polygon
   fill="#8C8C8C"
   points="51.5,28.66 51.5,29.74 53.5,30.66 56.5,30.66 58.5,29.74 58.5,28.66"
   id="polygon90" />
	<polygon
   fill="#8C8C8C"
   points="68.5,4.34 68.5,3.26 66.5,2.34 63.5,2.34 61.5,3.26 61.5,4.34"
   id="polygon92" />
	<polygon
   fill="#8C8C8C"
   points="61.5,28.66 61.5,29.74 63.5,30.66 66.5,30.66 68.5,29.74 68.5,28.66"
   id="polygon94" />
	<polygon
   fill="#8C8C8C"
   points="78.5,4.34 78.5,3.26 76.5,2.34 73.5,2.34 71.5,3.26 71.5,4.34"
   id="polygon96" />
	<polygon
   fill="#8C8C8C"
   points="71.5,28.66 71.5,29.74 73.5,30.66 76.5,30.66 78.5,29.74 78.5,28.66"
   id="polygon98" />
	<polygon
   fill="#8C8C8C"
   points="88.5,4.34 88.5,3.26 86.5,2.34 83.5,2.34 81.5,3.26 81.5,4.34"
   id="polygon100" />
	<polygon
   fill="#8C8C8C"
   points="81.5,28.66 81.5,29.74 83.5,30.66 86.5,30.66 88.5,29.74 88.5,28.66"
   id="polygon102" />
	<polygon
   fill="#8C8C8C"
   points="98.5,4.34 98.5,3.26 96.5,2.34 93.5,2.34 91.5,3.26 91.5,4.34"
   id="polygon104" />
	<polygon
   fill="#8C8C8C"
   points="91.5,28.66 91.5,29.74 93.5,30.66 96.5,30.66 98.5,29.74 98.5,28.66"
   id="polygon106" />
	<polygon
   fill="#8C8C8C"
   points="108.5,4.34 108.5,3.26 106.5,2.34 103.5,2.34 101.5,3.26 101.5,4.34"
   id="polygon108" />
	<polygon
   fill="#8C8C8C"
   points="101.5,28.66 101.5,29.74 103.5,30.66 106.5,30.66 108.5,29.74 108.5,28.66"
   id="polygon110" />
	<polygon
   fill="#8C8C8C"
   points="118.5,4.34 118.5,3.26 116.5,2.34 113.5,2.34 111.5,3.26 111.5,4.34"
   id="polygon112" />
	<polygon
   fill="#8C8C8C"
   points="111.5,28.66 111.5,29.74 113.5,30.66 116.5,30.66 118.5,29.74 118.5,28.66"
   id="polygon114" />
	<polygon
   fill="#8C8C8C"
   points="128.5,4.34 128.5,3.26 126.5,2.34 123.5,2.34 121.5,3.26 121.5,4.34"
   id="polygon116" />
	<polygon
   fill="#8C8C8C"
   points="121.5,28.66 121.5,29.74 123.5,30.66 126.5,30.66 128.5,29.74 128.5,28.66"
   id="polygon118" />
	<polygon
   fill="#141414"
   points="140,3 139.25,5.46 137.853,5.46 137.853,27.53 139.25,27.54 140,30 "
   id="polygon120" />
	<polygon
   fill="#1F1F1F"
   points="0,3 0.75,5.46 0.75,11.5 5,11.5 5,21.5 0.75,21.5 0.75,27.54 0,30  "
   id="polygon122" />
	<polygon
   fill="#1C1C1C"
   points="5,11.5 0.75,11.5 0.56,13.6 0.56,16.5 5,16.5  "
   id="polygon124" />
	<polygon
   fill="#383838"
   points="0.75,21.5 5,21.5 5,16.5 0.56,16.5 0.56,19.4  "
   id="polygon126" />
	<path
   fill="#303030"
   d="M0.75,5.46 v6.0 c2.38,0.45,4.19,2.53,4.19,5.04 c0,2.51-1.8,4.6-4.19,5.05 v6.0 h138.5 V5.46 H0.75 z"
   id="path128" />
	<path
   fill="#262626"
   d="M0.56,13.6 v5.83 c1.47-0.17,2.62-1.4,2.62-2.92 C3.18,15.0,2.04,13.75,0.56,13.6 z"
   id="path130" />
	<circle
   fill="#212121"
   cx="6.5"
   cy="23.47"
   r="2.06"
   id="circle132" />
	<g
   id="icpackage_text_layer">
		<path
   style="font-size:7px;fill:#665e55;font-family:OCRA"
   d="M 9.1552782,9.512248 L 8.2187548,12.051799 L 10.09522,12.051799 L 9.1552782,9.512248 M 8.7656298,8.8320723 L 9.5483446,8.8320723 L 11.493169,13.9351 L 10.775395,13.9351 L 10.310552,12.626018 L 8.0102587,12.626018 L 7.5454149,13.9351 L 6.8173876,13.9351 L 8.7656298,8.8320723 M 10.980474,8.8320723 L 15.297368,8.8320723 L 15.297368,9.4131269 L 13.485845,9.4131269 L 13.485845,13.9351 L 12.791997,13.9351 L 12.791997,9.4131269 L 10.980474,9.4131269 L 10.980474,8.8320723 M 15.96729,8.8320723 L 16.996099,8.8320723 L 18.298345,12.304729 L 19.607427,8.8320723 L 20.636235,8.8320723 L 20.636235,13.9351 L 19.962895,13.9351 L 19.962895,9.4541426 L 18.646977,12.954143 L 17.95313,12.954143 L 16.637212,9.4541426 L 16.637212,13.9351 L 15.96729,13.9351 L 15.96729,8.8320723 M 22.010259,8.8320723 L 25.236821,8.8320723 L 25.236821,9.4131269 L 22.700688,9.4131269 L 22.700688,10.923869 L 25.130864,10.923869 L 25.130864,11.504924 L 22.700688,11.504924 L 22.700688,13.354045 L 25.298345,13.354045 L 25.298345,13.9351 L 22.010259,13.9351 L 22.010259,8.8320723 M 29.919438,13.207072 L 29.919438,11.836467 L 28.791509,11.836467 L 28.791509,11.269084 L 30.603032,11.269084 L 30.603032,13.460002 C 30.336426,13.64913 30.042481,13.792684 29.721196,13.890666 C 29.399903,13.986369 29.056968,14.034221 28.692388,14.034221 C 27.894859,14.034221 27.270511,13.801799 26.819341,13.336955 C 26.370447,12.869834 26.146,12.22042 26.146001,11.388713 C 26.146,10.554732 26.370447,9.9053185 26.819341,9.4404707 C 27.270511,8.9733533 27.894859,8.7397923 28.692388,8.7397871 C 29.025067,8.7397923 29.340659,8.7808079 29.639165,8.862834 C 29.939942,8.9448702 30.216797,9.0656383 30.469731,9.2251387 L 30.469731,9.9600019 C 30.214519,9.7435348 29.94336,9.5806118 29.656255,9.4712324 C 29.369142,9.361862 29.067222,9.3071745 28.750493,9.3071699 C 28.126142,9.3071745 27.656741,9.4814908 27.34229,9.8301191 C 27.030114,10.178756 26.874027,10.698286 26.874028,11.388713 C 26.874027,12.076866 27.030114,12.595257 27.34229,12.943889 C 27.656741,13.292522 28.126142,13.466838 28.750493,13.466838 C 28.994305,13.466838 29.211915,13.446331 29.403325,13.405314 C 29.594727,13.362021 29.766765,13.29594 29.919438,13.207072 M 33.573247,9.512248 L 32.636724,12.051799 L 34.513188,12.051799 L 33.573247,9.512248 M 33.183599,8.8320723 L 33.966313,8.8320723 L 35.911138,13.9351 L 35.193364,13.9351 L 34.72852,12.626018 L 32.428227,12.626018 L 31.963384,13.9351 L 31.235356,13.9351 L 33.183599,8.8320723"
   id="text135" /><path
   style="font-size:7px;fill:#665e55;font-family:OCRA"
   d="M 7.6308641,20.354046 L 8.7587938,20.354046 L 8.7587938,16.460979 L 7.531743,16.707073 L 7.531743,16.078167 L 8.7519579,15.832073 L 9.4423876,15.832073 L 9.4423876,20.354046 L 10.570317,20.354046 L 10.570317,20.935101 L 7.6308641,20.935101 L 7.6308641,20.354046 M 13.530278,18.10844 C 13.22038,18.108443 12.974287,18.2144 12.791997,18.426311 C 12.611983,18.638228 12.521976,18.928755 12.521977,19.297894 C 12.521976,19.664757 12.611983,19.955284 12.791997,20.169476 C 12.974287,20.38139 13.22038,20.487347 13.530278,20.487347 C 13.840171,20.487347 14.085126,20.38139 14.265141,20.169476 C 14.44743,19.955284 14.538576,19.664757 14.538579,19.297894 C 14.538576,18.928755 14.44743,18.638228 14.265141,18.426311 C 14.085126,18.2144 13.840171,18.108443 13.530278,18.10844 M 14.900884,15.944866 L 14.900884,16.573772 C 14.727703,16.491746 14.552248,16.429083 14.374516,16.385784 C 14.199058,16.342494 14.024742,16.320847 13.851567,16.320843 C 13.395836,16.320847 13.047203,16.474656 12.805669,16.782269 C 12.56641,17.08989 12.429691,17.554733 12.395513,18.1768 C 12.529951,17.978561 12.698571,17.827031 12.901372,17.72221 C 13.10417,17.615117 13.327477,17.561569 13.571294,17.561565 C 14.083986,17.561569 14.488446,17.717656 14.784673,18.029827 C 15.083171,18.339726 15.232423,18.762414 15.232427,19.297894 C 15.232423,19.821983 15.077475,20.242393 14.767583,20.559124 C 14.457684,20.875856 14.045249,21.034222 13.530278,21.034222 C 12.940107,21.034222 12.488936,20.808636 12.176763,20.357464 C 11.864587,19.904014 11.7085,19.247765 11.708501,18.388714 C 11.7085,17.582077 11.899906,16.939499 12.28272,16.460979 C 12.665531,15.98019 13.179365,15.739793 13.824224,15.739788 C 13.997398,15.739793 14.171714,15.756883 14.347173,15.791058 C 14.524904,15.825242 14.709474,15.876512 14.900884,15.944866 M 17.90186,18.511761 C 17.573733,18.511763 17.315107,18.599491 17.125981,18.774944 C 16.939131,18.950402 16.845707,19.191938 16.845708,19.499554 C 16.845707,19.807172 16.939131,20.048708 17.125981,20.224163 C 17.315107,20.399619 17.573733,20.487347 17.90186,20.487347 C 18.229983,20.487347 18.488609,20.399619 18.677739,20.224163 C 18.866864,20.04643 18.961427,19.804893 18.961431,19.499554 C 18.961427,19.191938 18.866864,18.950402 18.677739,18.774944 C 18.490887,18.599491 18.232261,18.511763 17.90186,18.511761 M 17.211431,18.217815 C 16.915205,18.144902 16.683923,18.007044 16.517583,17.804241 C 16.35352,17.601445 16.271489,17.354212 16.271489,17.062542 C 16.271489,16.654669 16.416182,16.332241 16.705571,16.095257 C 16.997237,15.858283 17.395999,15.739793 17.90186,15.739788 C 18.409996,15.739793 18.808758,15.858283 19.098149,16.095257 C 19.387534,16.332241 19.532227,16.654669 19.532231,17.062542 C 19.532227,17.354212 19.449057,17.601445 19.28272,17.804241 C 19.118654,18.007044 18.88965,18.144902 18.595708,18.217815 C 18.928387,18.295292 19.187013,18.446822 19.371587,18.672405 C 19.558432,18.897993 19.651856,19.173709 19.65186,19.499554 C 19.651856,19.994021 19.500326,20.373415 19.19727,20.637737 C 18.896486,20.90206 18.464683,21.034222 17.90186,21.034222 C 17.339033,21.034222 16.906091,20.90206 16.603032,20.637737 C 16.30225,20.373415 16.15186,19.994021 16.15186,19.499554 C 16.15186,19.173709 16.245284,18.897993 16.432134,18.672405 C 16.618982,18.446822 16.878747,18.295292 17.211431,18.217815 M 16.958501,17.127483 C 16.9585,17.39181 17.040531,17.598027 17.204595,17.746136 C 17.370934,17.894251 17.603356,17.968307 17.90186,17.968304 C 18.198082,17.968307 18.429364,17.894251 18.595708,17.746136 C 18.764325,17.598027 18.848634,17.39181 18.848638,17.127483 C 18.848634,16.863165 18.764325,16.656947 18.595708,16.508831 C 18.429364,16.360724 18.198082,16.286668 17.90186,16.286663 C 17.603356,16.286668 17.370934,16.360724 17.204595,16.508831 C 17.040531,16.656947 16.9585,16.863165 16.958501,17.127483"
   id="text2515" />
	</g>
</g>
</svg>
